inDegrees=no
num_controls=7
num_derivatives=13
num_iterations=131
num_multipliers=7
num_parameters=0
num_slacks=7
num_states=26
objective=5.891919
objective_accelerations=0.759580
objective_balance=0.015839
objective_effort=0.515891
objective_height=4.576577
objective_ligament=0.024033
solver_duration=1098.107740
status=Solve_Succeeded
success=true
DataType=double
version=3
OpenSimVersion=4.4-2022-07-23-0e9fedc
endheader
time	/jointset/ground_pelvis/pelvis_tilt/value	/jointset/ground_pelvis/pelvis_tx/value	/jointset/ground_pelvis/pelvis_ty/value	/jointset/hip_r/hip_flexion_r/value	/jointset/hip_r/hip_adduction_r/value	/jointset/hip_r/hip_rotation_r/value	/jointset/back/lumbar_extension/value	/jointset/patellofemoral_r/patellar_flexion_r/value	/jointset/knee_r/knee_flexion_r/value	/jointset/knee_r/knee_adduction_r/value	/jointset/knee_r/knee_rotation_r/value	/jointset/ankle_r/ankle_angle_r/value	/jointset/subtalar_r/subtalar_angle_r/value	/jointset/ground_pelvis/pelvis_tilt/speed	/jointset/ground_pelvis/pelvis_tx/speed	/jointset/ground_pelvis/pelvis_ty/speed	/jointset/hip_r/hip_flexion_r/speed	/jointset/hip_r/hip_adduction_r/speed	/jointset/hip_r/hip_rotation_r/speed	/jointset/back/lumbar_extension/speed	/jointset/patellofemoral_r/patellar_flexion_r/speed	/jointset/knee_r/knee_flexion_r/speed	/jointset/knee_r/knee_adduction_r/speed	/jointset/knee_r/knee_rotation_r/speed	/jointset/ankle_r/ankle_angle_r/speed	/jointset/subtalar_r/subtalar_angle_r/speed	/forceset/tau_hip_flexion_r	/forceset/tau_hip_adduction_r	/forceset/tau_hip_rotation_r	/forceset/tau_knee_flexion_r	/forceset/tau_ankle_angle_r	/forceset/tau_subtalar_angle_r	/forceset/tau_lumbar_extension	lambda_cid13_p0	lambda_cid14_p0	lambda_cid14_p1	lambda_cid14_p2	lambda_cid14_p3	lambda_cid14_p4	lambda_cid14_p5	/jointset/ground_pelvis/pelvis_tilt/accel	/jointset/ground_pelvis/pelvis_tx/accel	/jointset/ground_pelvis/pelvis_ty/accel	/jointset/hip_r/hip_flexion_r/accel	/jointset/hip_r/hip_adduction_r/accel	/jointset/hip_r/hip_rotation_r/accel	/jointset/back/lumbar_extension/accel	/jointset/patellofemoral_r/patellar_flexion_r/accel	/jointset/knee_r/knee_flexion_r/accel	/jointset/knee_r/knee_adduction_r/accel	/jointset/knee_r/knee_rotation_r/accel	/jointset/ankle_r/ankle_angle_r/accel	/jointset/subtalar_r/subtalar_angle_r/accel	gamma_cid13_p0	gamma_cid14_p0	gamma_cid14_p1	gamma_cid14_p2	gamma_cid14_p3	gamma_cid14_p4	gamma_cid14_p5
1	-0.2774903406742951	-0.02688438614312913	0.5755358868696898	1.620085858877985	-0.2427006390008225	-0.04866620372795133	-0.7853874464395834	1.657473895718623	1.657473895718768	-0.1745202488256488	0.174413402921719	0.4362089959948397	0.1665230726157579	0.06829077623829904	0.004385625278601634	0.01714351267323494	-0.1025332532881376	-0.0009509992126178374	-0.001499501181328124	-0.0001449918211715748	-0.02027717565867541	-0.02027717565867238	0.00509697380211777	-0.0004365866689096033	0.01382808825040269	0.005148505491549331	-0.3667168409919699	0.01890137477674185	0.004189249704256015	-0.4925894751463175	-0.004665925351019456	0.003983896984156127	0.3786848638615047	-0.03927887922342494	-54.55316123952715	-11.8229577626382	6.87728438954777	8.301615144406091	-788.8584273447032	70.39497118228306	1.16680125385772	0.1013248310423846	2.174214952271642	-6.218824151302225	0.2139031274284915	-0.7814453184694886	-0.0310076902323422	-5.650098951824192	-5.650098951824134	0.7204501403471557	-0.02195169294147751	-0.7703232606159671	0.03826476170206597	1.713120194988597e-09	2.04702417308358e-09	8.894506627999911e-09	1.228465767363029e-08	-1.501341869989525e-09	-5.774248646009568e-09	1.958339850028534e-08
1.01	-0.2767496361712102	-0.02683540885335261	0.5758159080087649	1.618750290639303	-0.2426993897128373	-0.04871697928595269	-0.7853897105179498	1.656989024391953	1.656989024392252	-0.1744300569973845	0.1744076973507599	0.4363087912418265	0.1665765244145902	0.0798545587181811	0.005418809517476228	0.03885859798338152	-0.1645849824328217	0.00119552629366951	-0.008612075695696825	-0.0003002859383357479	-0.07669098363759139	-0.07669098363758893	0.01299171509026373	-0.0006950782447768199	0.006132972642266656	0.00553146020718005	-0.366158430527218	0.01881133004316139	0.004295717007840674	-0.4930035263759296	-0.004020746170503166	0.003964378947132551	0.3784489639641468	-0.03928197273332459	-54.33616960432104	-11.79970050299921	6.880726836850954	8.060147025486536	-788.7578703841218	70.49126524072292	1.151834128471708	0.1056602002156561	2.169834744049402	-6.19903347229127	0.2142350121189653	-0.6696297226471351	-0.006659587258279863	-5.636107566484021	-5.63610756648361	0.8315320005434939	-0.02636434869509718	-0.7688037576853654	0.03676576687412533	8.683349888864064e-09	1.167115205064559e-08	4.575374377232549e-08	5.802399517719628e-08	-7.662067878173696e-09	-1.491943311135484e-08	1.17759246976748e-07
1.02	-0.2758931603666587	-0.02677583072520565	0.5763130158856744	1.616794067874339	-0.2426768336197656	-0.04883757382996119	-0.785393301400121	1.655940197816383	1.65594019781647	-0.1742594085805557	0.1743996935723451	0.4363316957225802	0.1666334967486529	0.09144503653490532	0.006505792952690196	0.06056086024031242	-0.2266641586269801	0.003310361795550026	-0.01546329839911508	-0.000410352647427684	-0.1330682254388623	-0.1330682254388607	0.02118829147820413	-0.0008962281721043386	-0.001550064836810449	0.005852612538053045	-0.3656000200604779	0.01872128530981801	0.004402184310963512	-0.4934175776055799	-0.003375566990310214	0.003944860910405222	0.3782130640686582	-0.03929405548012321	-54.12516803526941	-11.77449450882992	6.880434309016954	7.82094419639911	-788.7521224176518	70.61175765250725	1.172140321226516	0.1120846703097797	2.171650341628427	-6.224313561196777	0.2075651265472736	-0.7291749562796778	-0.02196220861688742	-5.642785716295345	-5.642785716295332	0.7808171603056796	-0.01048336323361682	-0.7679076348051709	0.02590428475031773	1.77003540100511e-08	2.434123955347754e-08	8.94612876100201e-08	1.166839458060114e-07	-1.632243895746646e-08	-2.490823036896433e-08	2.413187750082855e-07
1.03	-0.2749206787016557	-0.02670513618815088	0.5770270215486878	1.614217162682234	-0.242633274851251	-0.04902545497646867	-0.7853972031761848	1.654327735152542	1.654327735152577	-0.1740053581034852	0.1743899881215542	0.4362775587055367	0.1666932593758889	0.1030528073477105	0.00763993277563682	0.082232309924614	-0.2886980313672591	0.005398768407226724	-0.02208021907990481	-0.0003065503872218441	-0.189423413454598	-0.1894234134545954	0.0296603015956307	-0.001036905775497204	-0.009301680296570526	0.006081474045808238	-0.3655694603686053	0.01876951038203718	0.004551697440549727	-0.493109897382382	-0.003742814543031117	0.004001337946263195	0.3784322345627837	-0.03932110756414133	-54.23930309283569	-11.7515940284227	6.855815737285947	7.896137589727352	-788.7614916657584	70.67235710908736	1.155328951015058	0.1150963315288798	2.163690874431723	-6.190090402269776	0.2091063673142828	-0.6230308694224442	0.03606926048291781	-5.631756665342906	-5.631756665342894	0.8861577441568489	-0.01461745607416949	-0.7824386548415327	0.01865297358868332	2.673824358457805e-08	3.704240827697553e-08	1.332387121282593e-07	1.754757394259006e-07	-2.500831661911748e-08	-3.490563592037244e-08	3.651373201781403e-07
1.04	-0.2738320726306185	-0.02662289671421855	0.577957501427063	1.61102048550815	-0.2425689064288955	-0.0492785213788022	-0.7853981633637399	1.652151746344318	1.652151746344463	-0.173665434563984	0.1743791243953206	0.4361451755029789	0.1667547657961602	0.1146699177488067	0.008814780328201289	0.1038557033128752	-0.3506185549806202	0.007472292572370082	-0.02850034957845005	0.0001779645588283517	-0.2457734543155553	-0.2457734543155521	0.03836290398089576	-0.001127883266197009	-0.01719930188753378	0.006201371145609821	-0.3655389006776001	0.01881773545423965	0.004701210570267741	-0.4928022171591758	-0.004110062095589184	0.00405781498216838	0.378651405056093	-0.03935675502756786	-54.35949593799523	-11.72646983924715	6.827090716058568	7.972515387194747	-788.8682547310132	70.75862971178111	1.174008238884931	0.1202262162333272	2.162039082420339	-6.201643735813172	0.2045886372406078	-0.6898169198309716	0.05418032856184406	-5.641756285339645	-5.641756285339668	0.8269356138731548	-0.0005433406950147955	-0.7971088610458248	0.004111403159603435	3.519480124307626e-08	4.723898357602887e-08	1.745290012874422e-07	2.309530566351199e-07	-2.893270100843445e-08	-4.451518295600092e-08	4.795102229675748e-07
1.05	-0.2726276684678069	-0.02652856888278217	0.5791039034547482	1.607205579509129	-0.2424839105086775	-0.04959482362359537	-0.7853909395084515	1.649412319343637	1.6494123193438	-0.1732373248930996	0.1743676295813833	0.4359331260451617	0.166816881673248	0.126169419014064	0.0100713450457592	0.1254096800494647	-0.412302696644112	0.009522124637447647	-0.03472794488124784	0.001475136668907297	-0.3021080076659559	-0.3021080076659452	0.04729822566807954	-0.001162670552929101	-0.02523042199918168	0.006201408299453111	-0.3661732245089229	0.01891619171448208	0.004929932637984108	-0.492228311059653	-0.004654576397626023	0.004105319419369793	0.3796646512484154	-0.0393951056904362	-54.55101362945197	-11.7154265737226	6.797978844250747	7.876419621815226	-789.3216602199877	70.80102648899118	1.131708186339662	0.1314488822888994	2.149812723547302	-6.142796351126051	0.2045005626153917	-0.5843860276361966	0.1987351372863528	-5.628722948669271	-5.628722948668129	0.9326936519511753	-0.003605144145033087	-0.8090871634053246	-0.005041661774220021	4.363319227919856e-08	5.735729033056833e-08	2.157415674666547e-07	2.863267964565058e-07	-3.270828873299101e-08	-5.411260941301129e-08	5.935879494326212e-07
